<mxfile host="app.diagrams.net" modified="2024-04-01T14:33:04.423Z" agent="Mozilla/5.0 (Macintosh; Intel Mac OS X 10_15_7) AppleWebKit/537.36 (KHTML, like Gecko) Chrome/123.0.0.0 Safari/537.36" etag="zeRno27Z-EWXkXfqHIUH" version="24.2.1" type="device">
  <diagram name="ページ1" id="_p8y2ZMvJbF9bzFV4q6h">
    <mxGraphModel dx="1004" dy="612" grid="1" gridSize="10" guides="1" tooltips="1" connect="1" arrows="1" fold="1" page="1" pageScale="1" pageWidth="827" pageHeight="1169" math="0" shadow="0">
      <root>
        <mxCell id="0" />
        <mxCell id="1" parent="0" />
        <mxCell id="49aFclzyOkbWazswMRNb-1" value="" style="shape=parallelogram;perimeter=parallelogramPerimeter;whiteSpace=wrap;html=1;fixedSize=1;fillColor=#fff2cc;strokeColor=none;size=20;flipH=0;" vertex="1" parent="1">
          <mxGeometry x="180" y="950" width="60" height="120" as="geometry" />
        </mxCell>
        <mxCell id="3wXypxJsI4q4X5wOz-Iy-138" value="" style="shape=parallelogram;perimeter=parallelogramPerimeter;whiteSpace=wrap;html=1;fixedSize=1;fillColor=#fff2cc;strokeColor=none;size=20;flipH=0;" parent="1" vertex="1">
          <mxGeometry x="160.25" y="600" width="60" height="120" as="geometry" />
        </mxCell>
        <mxCell id="3wXypxJsI4q4X5wOz-Iy-139" value="" style="rounded=0;whiteSpace=wrap;html=1;fillColor=#fff2cc;strokeColor=none;" parent="1" vertex="1">
          <mxGeometry x="200.25" y="600" width="439.75" height="40" as="geometry" />
        </mxCell>
        <mxCell id="3wXypxJsI4q4X5wOz-Iy-140" value="" style="shape=parallelogram;perimeter=parallelogramPerimeter;whiteSpace=wrap;html=1;fixedSize=1;fillColor=#fff2cc;strokeColor=none;size=20;flipH=1;" parent="1" vertex="1">
          <mxGeometry x="620" y="600" width="60" height="120" as="geometry" />
        </mxCell>
        <mxCell id="3wXypxJsI4q4X5wOz-Iy-15" value="" style="shape=parallelogram;perimeter=parallelogramPerimeter;whiteSpace=wrap;html=1;fixedSize=1;fillColor=#dae8fc;strokeColor=none;size=30;flipH=0;" parent="1" vertex="1">
          <mxGeometry x="240" y="50" width="70" height="180" as="geometry" />
        </mxCell>
        <mxCell id="3wXypxJsI4q4X5wOz-Iy-72" value="" style="rounded=0;whiteSpace=wrap;html=1;strokeColor=none;" parent="1" vertex="1">
          <mxGeometry x="235" y="145" width="70" height="50" as="geometry" />
        </mxCell>
        <mxCell id="Phm8OfdDfyKniIvOWUuk-1" value="" style="rounded=0;whiteSpace=wrap;html=1;fillColor=#d5e8d4;strokeColor=none;" parent="1" vertex="1">
          <mxGeometry y="1580" width="740" height="60" as="geometry" />
        </mxCell>
        <mxCell id="Phm8OfdDfyKniIvOWUuk-31" style="edgeStyle=orthogonalEdgeStyle;rounded=0;orthogonalLoop=1;jettySize=auto;html=1;entryX=0;entryY=0.5;entryDx=0;entryDy=0;" parent="1" source="Phm8OfdDfyKniIvOWUuk-17" target="Phm8OfdDfyKniIvOWUuk-20" edge="1">
          <mxGeometry relative="1" as="geometry" />
        </mxCell>
        <mxCell id="Phm8OfdDfyKniIvOWUuk-17" value="" style="ellipse;whiteSpace=wrap;html=1;aspect=fixed;dashed=1;" parent="1" vertex="1">
          <mxGeometry x="140" y="1570" width="80" height="80" as="geometry" />
        </mxCell>
        <mxCell id="Phm8OfdDfyKniIvOWUuk-5" value="" style="rounded=0;whiteSpace=wrap;html=1;" parent="1" vertex="1">
          <mxGeometry x="162.5" y="1585" width="30" height="30" as="geometry" />
        </mxCell>
        <mxCell id="Phm8OfdDfyKniIvOWUuk-2" value="" style="rounded=0;whiteSpace=wrap;html=1;" parent="1" vertex="1">
          <mxGeometry x="147.5" y="1590" width="30" height="30" as="geometry" />
        </mxCell>
        <mxCell id="Phm8OfdDfyKniIvOWUuk-6" value="" style="rounded=0;whiteSpace=wrap;html=1;" parent="1" vertex="1">
          <mxGeometry x="172.5" y="1595" width="30" height="30" as="geometry" />
        </mxCell>
        <mxCell id="Phm8OfdDfyKniIvOWUuk-3" value="" style="rounded=0;whiteSpace=wrap;html=1;" parent="1" vertex="1">
          <mxGeometry x="157.5" y="1600" width="30" height="30" as="geometry" />
        </mxCell>
        <mxCell id="Phm8OfdDfyKniIvOWUuk-7" value="" style="rounded=0;whiteSpace=wrap;html=1;" parent="1" vertex="1">
          <mxGeometry x="182.5" y="1605" width="30" height="30" as="geometry" />
        </mxCell>
        <mxCell id="Phm8OfdDfyKniIvOWUuk-4" value="" style="rounded=0;whiteSpace=wrap;html=1;" parent="1" vertex="1">
          <mxGeometry x="167.5" y="1610" width="30" height="30" as="geometry" />
        </mxCell>
        <mxCell id="p1uvAuJWru4tgl7bkKN8-23" value="" style="rounded=0;whiteSpace=wrap;html=1;fillColor=#dae8fc;strokeColor=none;" parent="1" vertex="1">
          <mxGeometry x="120" y="1320" width="620" height="60" as="geometry" />
        </mxCell>
        <mxCell id="p1uvAuJWru4tgl7bkKN8-22" value="" style="rounded=0;whiteSpace=wrap;html=1;fillColor=#d5e8d4;strokeColor=none;" parent="1" vertex="1">
          <mxGeometry x="120" y="1380" width="620" height="60" as="geometry" />
        </mxCell>
        <mxCell id="p1uvAuJWru4tgl7bkKN8-10" style="edgeStyle=orthogonalEdgeStyle;rounded=0;orthogonalLoop=1;jettySize=auto;html=1;entryX=0;entryY=0.5;entryDx=0;entryDy=0;" parent="1" source="p1uvAuJWru4tgl7bkKN8-1" target="p1uvAuJWru4tgl7bkKN8-6" edge="1">
          <mxGeometry relative="1" as="geometry" />
        </mxCell>
        <mxCell id="p1uvAuJWru4tgl7bkKN8-15" style="edgeStyle=orthogonalEdgeStyle;rounded=0;orthogonalLoop=1;jettySize=auto;html=1;entryX=0;entryY=0.5;entryDx=0;entryDy=0;curved=1;" parent="1" source="p1uvAuJWru4tgl7bkKN8-1" target="p1uvAuJWru4tgl7bkKN8-3" edge="1">
          <mxGeometry relative="1" as="geometry" />
        </mxCell>
        <mxCell id="p1uvAuJWru4tgl7bkKN8-1" value="" style="ellipse;whiteSpace=wrap;html=1;aspect=fixed;" parent="1" vertex="1">
          <mxGeometry x="260" y="1400" width="20" height="20" as="geometry" />
        </mxCell>
        <mxCell id="p1uvAuJWru4tgl7bkKN8-16" style="edgeStyle=orthogonalEdgeStyle;rounded=0;orthogonalLoop=1;jettySize=auto;html=1;entryX=0;entryY=0.5;entryDx=0;entryDy=0;curved=1;" parent="1" source="p1uvAuJWru4tgl7bkKN8-3" target="p1uvAuJWru4tgl7bkKN8-6" edge="1">
          <mxGeometry relative="1" as="geometry" />
        </mxCell>
        <mxCell id="p1uvAuJWru4tgl7bkKN8-3" value="" style="ellipse;whiteSpace=wrap;html=1;aspect=fixed;" parent="1" vertex="1">
          <mxGeometry x="320" y="1340" width="20" height="20" as="geometry" />
        </mxCell>
        <mxCell id="p1uvAuJWru4tgl7bkKN8-5" value="変更行数&lt;br&gt;+3,000&lt;br&gt;-1,000" style="text;html=1;strokeColor=none;fillColor=none;align=center;verticalAlign=middle;whiteSpace=wrap;rounded=0;" parent="1" vertex="1">
          <mxGeometry x="352.5" y="1335" width="65" height="50" as="geometry" />
        </mxCell>
        <mxCell id="p1uvAuJWru4tgl7bkKN8-6" value="" style="ellipse;whiteSpace=wrap;html=1;aspect=fixed;" parent="1" vertex="1">
          <mxGeometry x="380" y="1400" width="20" height="20" as="geometry" />
        </mxCell>
        <mxCell id="p1uvAuJWru4tgl7bkKN8-11" style="edgeStyle=orthogonalEdgeStyle;rounded=0;orthogonalLoop=1;jettySize=auto;html=1;" parent="1" source="p1uvAuJWru4tgl7bkKN8-7" target="p1uvAuJWru4tgl7bkKN8-8" edge="1">
          <mxGeometry relative="1" as="geometry" />
        </mxCell>
        <mxCell id="p1uvAuJWru4tgl7bkKN8-17" style="edgeStyle=orthogonalEdgeStyle;rounded=0;orthogonalLoop=1;jettySize=auto;html=1;entryX=0;entryY=0.5;entryDx=0;entryDy=0;curved=1;" parent="1" source="p1uvAuJWru4tgl7bkKN8-7" target="p1uvAuJWru4tgl7bkKN8-9" edge="1">
          <mxGeometry relative="1" as="geometry" />
        </mxCell>
        <mxCell id="p1uvAuJWru4tgl7bkKN8-7" value="" style="ellipse;whiteSpace=wrap;html=1;aspect=fixed;" parent="1" vertex="1">
          <mxGeometry x="450" y="1400" width="20" height="20" as="geometry" />
        </mxCell>
        <mxCell id="p1uvAuJWru4tgl7bkKN8-8" value="" style="ellipse;whiteSpace=wrap;html=1;aspect=fixed;" parent="1" vertex="1">
          <mxGeometry x="660" y="1400" width="20" height="20" as="geometry" />
        </mxCell>
        <mxCell id="p1uvAuJWru4tgl7bkKN8-19" style="edgeStyle=orthogonalEdgeStyle;rounded=0;orthogonalLoop=1;jettySize=auto;html=1;" parent="1" source="p1uvAuJWru4tgl7bkKN8-9" target="p1uvAuJWru4tgl7bkKN8-13" edge="1">
          <mxGeometry relative="1" as="geometry" />
        </mxCell>
        <mxCell id="p1uvAuJWru4tgl7bkKN8-9" value="" style="ellipse;whiteSpace=wrap;html=1;aspect=fixed;" parent="1" vertex="1">
          <mxGeometry x="510" y="1345" width="20" height="20" as="geometry" />
        </mxCell>
        <mxCell id="p1uvAuJWru4tgl7bkKN8-21" style="edgeStyle=orthogonalEdgeStyle;rounded=0;orthogonalLoop=1;jettySize=auto;html=1;entryX=0;entryY=0.5;entryDx=0;entryDy=0;curved=1;" parent="1" source="p1uvAuJWru4tgl7bkKN8-12" target="p1uvAuJWru4tgl7bkKN8-8" edge="1">
          <mxGeometry relative="1" as="geometry" />
        </mxCell>
        <mxCell id="p1uvAuJWru4tgl7bkKN8-12" value="" style="ellipse;whiteSpace=wrap;html=1;aspect=fixed;" parent="1" vertex="1">
          <mxGeometry x="600" y="1345" width="20" height="20" as="geometry" />
        </mxCell>
        <mxCell id="p1uvAuJWru4tgl7bkKN8-20" style="edgeStyle=orthogonalEdgeStyle;rounded=0;orthogonalLoop=1;jettySize=auto;html=1;" parent="1" source="p1uvAuJWru4tgl7bkKN8-13" target="p1uvAuJWru4tgl7bkKN8-12" edge="1">
          <mxGeometry relative="1" as="geometry" />
        </mxCell>
        <mxCell id="p1uvAuJWru4tgl7bkKN8-13" value="" style="ellipse;whiteSpace=wrap;html=1;aspect=fixed;" parent="1" vertex="1">
          <mxGeometry x="554" y="1345" width="20" height="20" as="geometry" />
        </mxCell>
        <mxCell id="p1uvAuJWru4tgl7bkKN8-14" value="変更行数&lt;br&gt;+10,000&lt;br&gt;-2,000" style="text;html=1;strokeColor=none;fillColor=none;align=center;verticalAlign=middle;whiteSpace=wrap;rounded=0;" parent="1" vertex="1">
          <mxGeometry x="635" y="1335" width="60" height="50" as="geometry" />
        </mxCell>
        <mxCell id="p1uvAuJWru4tgl7bkKN8-83" value="&lt;font style=&quot;font-size: 36px;&quot;&gt;🙅‍♂️&lt;/font&gt;" style="text;html=1;strokeColor=none;fillColor=none;align=center;verticalAlign=middle;whiteSpace=wrap;rounded=0;" parent="1" vertex="1">
          <mxGeometry y="1520" width="50" height="60" as="geometry" />
        </mxCell>
        <mxCell id="p1uvAuJWru4tgl7bkKN8-86" value="" style="group" parent="1" vertex="1" connectable="0">
          <mxGeometry x="130" y="1330" width="120" height="45" as="geometry" />
        </mxCell>
        <mxCell id="p1uvAuJWru4tgl7bkKN8-4" value="開発用ブランチ" style="text;html=1;strokeColor=none;fillColor=none;align=center;verticalAlign=middle;whiteSpace=wrap;rounded=0;" parent="p1uvAuJWru4tgl7bkKN8-86" vertex="1">
          <mxGeometry x="9.5" width="101" height="20" as="geometry" />
        </mxCell>
        <mxCell id="p1uvAuJWru4tgl7bkKN8-85" value="&lt;div style=&quot;font-size: 10px;&quot;&gt;特定の開発者のみが&lt;span style=&quot;background-color: initial;&quot;&gt;見る&lt;/span&gt;&lt;/div&gt;" style="text;html=1;strokeColor=none;fillColor=none;align=center;verticalAlign=middle;whiteSpace=wrap;rounded=0;fontSize=10;fontStyle=1" parent="p1uvAuJWru4tgl7bkKN8-86" vertex="1">
          <mxGeometry y="20" width="120" height="25" as="geometry" />
        </mxCell>
        <mxCell id="p1uvAuJWru4tgl7bkKN8-88" value="" style="group" parent="1" vertex="1" connectable="0">
          <mxGeometry x="134.5" y="1385" width="111" height="45" as="geometry" />
        </mxCell>
        <mxCell id="p1uvAuJWru4tgl7bkKN8-2" value="メインブランチ" style="text;html=1;strokeColor=none;fillColor=none;align=center;verticalAlign=middle;whiteSpace=wrap;rounded=0;" parent="p1uvAuJWru4tgl7bkKN8-88" vertex="1">
          <mxGeometry width="111" height="22.5" as="geometry" />
        </mxCell>
        <mxCell id="p1uvAuJWru4tgl7bkKN8-87" value="&lt;font style=&quot;font-size: 10px;&quot;&gt;&lt;b&gt;全開発者が見る&lt;/b&gt;&lt;/font&gt;" style="text;html=1;strokeColor=none;fillColor=none;align=center;verticalAlign=middle;whiteSpace=wrap;rounded=0;" parent="p1uvAuJWru4tgl7bkKN8-88" vertex="1">
          <mxGeometry y="22.5" width="111" height="22.5" as="geometry" />
        </mxCell>
        <mxCell id="Phm8OfdDfyKniIvOWUuk-18" value="" style="edgeStyle=orthogonalEdgeStyle;rounded=0;orthogonalLoop=1;jettySize=auto;html=1;entryX=0.5;entryY=1;entryDx=0;entryDy=0;dashed=1;" parent="1" source="Phm8OfdDfyKniIvOWUuk-8" target="Phm8OfdDfyKniIvOWUuk-17" edge="1">
          <mxGeometry relative="1" as="geometry" />
        </mxCell>
        <mxCell id="Phm8OfdDfyKniIvOWUuk-8" value="" style="sketch=0;outlineConnect=0;fontColor=#232F3E;gradientColor=none;fillColor=#232F3D;strokeColor=none;dashed=0;verticalLabelPosition=bottom;verticalAlign=top;align=center;html=1;fontSize=12;fontStyle=0;aspect=fixed;pointerEvents=1;shape=mxgraph.aws4.user;" parent="1" vertex="1">
          <mxGeometry x="166" y="1678" width="28" height="28" as="geometry" />
        </mxCell>
        <mxCell id="Phm8OfdDfyKniIvOWUuk-21" style="edgeStyle=orthogonalEdgeStyle;rounded=0;orthogonalLoop=1;jettySize=auto;html=1;entryX=0.5;entryY=1;entryDx=0;entryDy=0;dashed=1;" parent="1" source="Phm8OfdDfyKniIvOWUuk-9" target="Phm8OfdDfyKniIvOWUuk-20" edge="1">
          <mxGeometry relative="1" as="geometry" />
        </mxCell>
        <mxCell id="Phm8OfdDfyKniIvOWUuk-9" value="" style="sketch=0;outlineConnect=0;fontColor=#232F3E;gradientColor=none;fillColor=#232F3D;strokeColor=none;dashed=0;verticalLabelPosition=bottom;verticalAlign=top;align=center;html=1;fontSize=12;fontStyle=0;aspect=fixed;pointerEvents=1;shape=mxgraph.aws4.user;" parent="1" vertex="1">
          <mxGeometry x="426" y="1678" width="28" height="28" as="geometry" />
        </mxCell>
        <mxCell id="Phm8OfdDfyKniIvOWUuk-16" value="トランクブランチ" style="text;html=1;strokeColor=none;fillColor=none;align=center;verticalAlign=middle;whiteSpace=wrap;rounded=0;" parent="1" vertex="1">
          <mxGeometry x="9" y="1598.75" width="111" height="22.5" as="geometry" />
        </mxCell>
        <mxCell id="Phm8OfdDfyKniIvOWUuk-32" style="edgeStyle=orthogonalEdgeStyle;rounded=0;orthogonalLoop=1;jettySize=auto;html=1;entryX=0;entryY=0.5;entryDx=0;entryDy=0;" parent="1" source="Phm8OfdDfyKniIvOWUuk-20" target="Phm8OfdDfyKniIvOWUuk-22" edge="1">
          <mxGeometry relative="1" as="geometry" />
        </mxCell>
        <mxCell id="Phm8OfdDfyKniIvOWUuk-20" value="" style="ellipse;whiteSpace=wrap;html=1;aspect=fixed;dashed=1;" parent="1" vertex="1">
          <mxGeometry x="400" y="1570" width="80" height="80" as="geometry" />
        </mxCell>
        <mxCell id="Phm8OfdDfyKniIvOWUuk-10" value="" style="rounded=0;whiteSpace=wrap;html=1;" parent="1" vertex="1">
          <mxGeometry x="422.5" y="1587.5" width="30" height="30" as="geometry" />
        </mxCell>
        <mxCell id="Phm8OfdDfyKniIvOWUuk-11" value="" style="rounded=0;whiteSpace=wrap;html=1;" parent="1" vertex="1">
          <mxGeometry x="407.5" y="1592.5" width="30" height="30" as="geometry" />
        </mxCell>
        <mxCell id="Phm8OfdDfyKniIvOWUuk-12" value="" style="rounded=0;whiteSpace=wrap;html=1;" parent="1" vertex="1">
          <mxGeometry x="432.5" y="1597.5" width="30" height="30" as="geometry" />
        </mxCell>
        <mxCell id="Phm8OfdDfyKniIvOWUuk-13" value="" style="rounded=0;whiteSpace=wrap;html=1;" parent="1" vertex="1">
          <mxGeometry x="417.5" y="1602.5" width="30" height="30" as="geometry" />
        </mxCell>
        <mxCell id="Phm8OfdDfyKniIvOWUuk-14" value="" style="rounded=0;whiteSpace=wrap;html=1;" parent="1" vertex="1">
          <mxGeometry x="442.5" y="1607.5" width="30" height="30" as="geometry" />
        </mxCell>
        <mxCell id="Phm8OfdDfyKniIvOWUuk-22" value="" style="ellipse;whiteSpace=wrap;html=1;aspect=fixed;dashed=1;" parent="1" vertex="1">
          <mxGeometry x="600" y="1570" width="80" height="80" as="geometry" />
        </mxCell>
        <mxCell id="Phm8OfdDfyKniIvOWUuk-23" value="" style="rounded=0;whiteSpace=wrap;html=1;" parent="1" vertex="1">
          <mxGeometry x="622.5" y="1582.5" width="30" height="30" as="geometry" />
        </mxCell>
        <mxCell id="Phm8OfdDfyKniIvOWUuk-24" value="" style="rounded=0;whiteSpace=wrap;html=1;" parent="1" vertex="1">
          <mxGeometry x="607.5" y="1587.5" width="30" height="30" as="geometry" />
        </mxCell>
        <mxCell id="Phm8OfdDfyKniIvOWUuk-25" value="" style="rounded=0;whiteSpace=wrap;html=1;" parent="1" vertex="1">
          <mxGeometry x="632.5" y="1592.5" width="30" height="30" as="geometry" />
        </mxCell>
        <mxCell id="Phm8OfdDfyKniIvOWUuk-26" value="" style="rounded=0;whiteSpace=wrap;html=1;" parent="1" vertex="1">
          <mxGeometry x="617.5" y="1597.5" width="30" height="30" as="geometry" />
        </mxCell>
        <mxCell id="Phm8OfdDfyKniIvOWUuk-27" value="" style="rounded=0;whiteSpace=wrap;html=1;" parent="1" vertex="1">
          <mxGeometry x="642.5" y="1602.5" width="30" height="30" as="geometry" />
        </mxCell>
        <mxCell id="Phm8OfdDfyKniIvOWUuk-28" value="" style="rounded=0;whiteSpace=wrap;html=1;" parent="1" vertex="1">
          <mxGeometry x="627.5" y="1607.5" width="30" height="30" as="geometry" />
        </mxCell>
        <mxCell id="Phm8OfdDfyKniIvOWUuk-29" style="edgeStyle=orthogonalEdgeStyle;rounded=0;orthogonalLoop=1;jettySize=auto;html=1;entryX=0.5;entryY=1;entryDx=0;entryDy=0;dashed=1;" parent="1" source="Phm8OfdDfyKniIvOWUuk-30" target="Phm8OfdDfyKniIvOWUuk-22" edge="1">
          <mxGeometry relative="1" as="geometry">
            <mxPoint x="641.5" y="1658" as="targetPoint" />
          </mxGeometry>
        </mxCell>
        <mxCell id="Phm8OfdDfyKniIvOWUuk-30" value="" style="sketch=0;outlineConnect=0;fontColor=#232F3E;gradientColor=none;fillColor=#232F3D;strokeColor=none;dashed=0;verticalLabelPosition=bottom;verticalAlign=top;align=center;html=1;fontSize=12;fontStyle=0;aspect=fixed;pointerEvents=1;shape=mxgraph.aws4.user;" parent="1" vertex="1">
          <mxGeometry x="626" y="1678" width="28" height="28" as="geometry" />
        </mxCell>
        <mxCell id="Phm8OfdDfyKniIvOWUuk-33" value="変更行数&lt;br&gt;+12,000&lt;br&gt;-2,000" style="text;html=1;strokeColor=none;fillColor=none;align=center;verticalAlign=middle;whiteSpace=wrap;rounded=0;" parent="1" vertex="1">
          <mxGeometry x="147.5" y="1520" width="65" height="50" as="geometry" />
        </mxCell>
        <mxCell id="Phm8OfdDfyKniIvOWUuk-34" value="変更行数&lt;br&gt;+7,500&lt;br&gt;-4,000" style="text;html=1;strokeColor=none;fillColor=none;align=center;verticalAlign=middle;whiteSpace=wrap;rounded=0;" parent="1" vertex="1">
          <mxGeometry x="407.5" y="1520" width="65" height="50" as="geometry" />
        </mxCell>
        <mxCell id="Phm8OfdDfyKniIvOWUuk-35" value="変更行数&lt;br&gt;+9,000&lt;br&gt;-1,500" style="text;html=1;strokeColor=none;fillColor=none;align=center;verticalAlign=middle;whiteSpace=wrap;rounded=0;" parent="1" vertex="1">
          <mxGeometry x="610" y="1520" width="65" height="50" as="geometry" />
        </mxCell>
        <mxCell id="Phm8OfdDfyKniIvOWUuk-36" value="" style="rounded=0;whiteSpace=wrap;html=1;fillColor=#d5e8d4;strokeColor=none;" parent="1" vertex="1">
          <mxGeometry y="1070" width="740" height="40" as="geometry" />
        </mxCell>
        <mxCell id="Phm8OfdDfyKniIvOWUuk-45" value="&lt;font style=&quot;font-size: 36px;&quot;&gt;🙆‍♂️&lt;/font&gt;" style="text;html=1;strokeColor=none;fillColor=none;align=center;verticalAlign=middle;whiteSpace=wrap;rounded=0;" parent="1" vertex="1">
          <mxGeometry y="1000" width="50" height="60" as="geometry" />
        </mxCell>
        <mxCell id="Phm8OfdDfyKniIvOWUuk-47" value="" style="sketch=0;outlineConnect=0;fontColor=#232F3E;gradientColor=none;fillColor=#232F3D;strokeColor=none;dashed=0;verticalLabelPosition=bottom;verticalAlign=top;align=center;html=1;fontSize=12;fontStyle=0;aspect=fixed;pointerEvents=1;shape=mxgraph.aws4.user;" parent="1" vertex="1">
          <mxGeometry x="166" y="1134" width="28" height="28" as="geometry" />
        </mxCell>
        <mxCell id="Phm8OfdDfyKniIvOWUuk-49" value="" style="sketch=0;outlineConnect=0;fontColor=#232F3E;gradientColor=none;fillColor=#232F3D;strokeColor=none;dashed=0;verticalLabelPosition=bottom;verticalAlign=top;align=center;html=1;fontSize=12;fontStyle=0;aspect=fixed;pointerEvents=1;shape=mxgraph.aws4.user;" parent="1" vertex="1">
          <mxGeometry x="366" y="1134" width="28" height="28" as="geometry" />
        </mxCell>
        <mxCell id="Phm8OfdDfyKniIvOWUuk-50" value="トランクブランチ" style="text;html=1;strokeColor=none;fillColor=none;align=center;verticalAlign=middle;whiteSpace=wrap;rounded=0;" parent="1" vertex="1">
          <mxGeometry x="9" y="1078.75" width="111" height="22.5" as="geometry" />
        </mxCell>
        <mxCell id="Phm8OfdDfyKniIvOWUuk-66" value="" style="sketch=0;outlineConnect=0;fontColor=#232F3E;gradientColor=none;fillColor=#232F3D;strokeColor=none;dashed=0;verticalLabelPosition=bottom;verticalAlign=top;align=center;html=1;fontSize=12;fontStyle=0;aspect=fixed;pointerEvents=1;shape=mxgraph.aws4.user;" parent="1" vertex="1">
          <mxGeometry x="633.5" y="1134" width="28" height="28" as="geometry" />
        </mxCell>
        <mxCell id="Phm8OfdDfyKniIvOWUuk-73" value="" style="sketch=0;outlineConnect=0;fontColor=#232F3E;gradientColor=none;fillColor=#232F3D;strokeColor=none;dashed=0;verticalLabelPosition=bottom;verticalAlign=top;align=center;html=1;fontSize=12;fontStyle=0;aspect=fixed;pointerEvents=1;shape=mxgraph.aws4.user;" parent="1" vertex="1">
          <mxGeometry x="332" y="1134" width="28" height="28" as="geometry" />
        </mxCell>
        <mxCell id="Phm8OfdDfyKniIvOWUuk-82" value="" style="sketch=0;outlineConnect=0;fontColor=#232F3E;gradientColor=none;fillColor=#232F3D;strokeColor=none;dashed=0;verticalLabelPosition=bottom;verticalAlign=top;align=center;html=1;fontSize=12;fontStyle=0;aspect=fixed;pointerEvents=1;shape=mxgraph.aws4.user;" parent="1" vertex="1">
          <mxGeometry x="465.5" y="1134" width="28" height="28" as="geometry" />
        </mxCell>
        <mxCell id="Phm8OfdDfyKniIvOWUuk-88" value="" style="sketch=0;outlineConnect=0;fontColor=#232F3E;gradientColor=none;fillColor=#232F3D;strokeColor=none;dashed=0;verticalLabelPosition=bottom;verticalAlign=top;align=center;html=1;fontSize=12;fontStyle=0;aspect=fixed;pointerEvents=1;shape=mxgraph.aws4.user;" parent="1" vertex="1">
          <mxGeometry x="535.5" y="1134" width="28" height="28" as="geometry" />
        </mxCell>
        <mxCell id="Phm8OfdDfyKniIvOWUuk-94" value="PRマージ" style="text;html=1;align=center;verticalAlign=middle;whiteSpace=wrap;rounded=0;" parent="1" vertex="1">
          <mxGeometry x="190" y="1650" width="70" height="30" as="geometry" />
        </mxCell>
        <mxCell id="F51sy77VU0Ca32_vkjNk-1" value="" style="rounded=0;whiteSpace=wrap;html=1;fillColor=#d5e8d4;strokeColor=none;" parent="1" vertex="1">
          <mxGeometry y="230" width="740" height="40" as="geometry" />
        </mxCell>
        <mxCell id="F51sy77VU0Ca32_vkjNk-10" value="&lt;font style=&quot;font-size: 36px;&quot;&gt;🙅‍♂️&lt;/font&gt;" style="text;html=1;strokeColor=none;fillColor=none;align=center;verticalAlign=middle;whiteSpace=wrap;rounded=0;" parent="1" vertex="1">
          <mxGeometry y="170" width="50" height="60" as="geometry" />
        </mxCell>
        <mxCell id="F51sy77VU0Ca32_vkjNk-12" value="" style="sketch=0;outlineConnect=0;fontColor=#232F3E;gradientColor=none;fillColor=#232F3D;strokeColor=none;dashed=0;verticalLabelPosition=bottom;verticalAlign=top;align=center;html=1;fontSize=12;fontStyle=0;aspect=fixed;pointerEvents=1;shape=mxgraph.aws4.user;" parent="1" vertex="1">
          <mxGeometry x="316" y="370" width="28" height="28" as="geometry" />
        </mxCell>
        <mxCell id="F51sy77VU0Ca32_vkjNk-14" value="" style="sketch=0;outlineConnect=0;fontColor=#232F3E;gradientColor=none;fillColor=#232F3D;strokeColor=none;dashed=0;verticalLabelPosition=bottom;verticalAlign=top;align=center;html=1;fontSize=12;fontStyle=0;aspect=fixed;pointerEvents=1;shape=mxgraph.aws4.user;" parent="1" vertex="1">
          <mxGeometry x="487.5" y="370" width="28" height="28" as="geometry" />
        </mxCell>
        <mxCell id="F51sy77VU0Ca32_vkjNk-15" value="トランクブランチ" style="text;html=1;strokeColor=none;fillColor=none;align=center;verticalAlign=middle;whiteSpace=wrap;rounded=0;" parent="1" vertex="1">
          <mxGeometry x="9" y="238.75" width="111" height="22.5" as="geometry" />
        </mxCell>
        <mxCell id="F51sy77VU0Ca32_vkjNk-36" value="" style="rounded=0;whiteSpace=wrap;html=1;fillColor=#dae8fc;strokeColor=none;" parent="1" vertex="1">
          <mxGeometry x="200" y="310" width="420" height="40" as="geometry" />
        </mxCell>
        <mxCell id="F51sy77VU0Ca32_vkjNk-38" value="" style="shape=parallelogram;perimeter=parallelogramPerimeter;whiteSpace=wrap;html=1;fixedSize=1;fillColor=#dae8fc;strokeColor=none;size=20;flipH=1;" parent="1" vertex="1">
          <mxGeometry x="160" y="270" width="60" height="80" as="geometry" />
        </mxCell>
        <mxCell id="F51sy77VU0Ca32_vkjNk-46" value="" style="shape=parallelogram;perimeter=parallelogramPerimeter;whiteSpace=wrap;html=1;fixedSize=1;fillColor=#dae8fc;strokeColor=none;size=20;flipH=0;" parent="1" vertex="1">
          <mxGeometry x="600" y="270" width="60" height="80" as="geometry" />
        </mxCell>
        <mxCell id="3wXypxJsI4q4X5wOz-Iy-1" value="" style="shape=parallelogram;perimeter=parallelogramPerimeter;whiteSpace=wrap;html=1;fixedSize=1;fillColor=#dae8fc;strokeColor=none;size=20;flipH=0;" parent="1" vertex="1">
          <mxGeometry x="120" y="150" width="60" height="80" as="geometry" />
        </mxCell>
        <mxCell id="3wXypxJsI4q4X5wOz-Iy-3" value="" style="group" parent="1" vertex="1" connectable="0">
          <mxGeometry x="230" y="290" width="80" height="80" as="geometry" />
        </mxCell>
        <mxCell id="F51sy77VU0Ca32_vkjNk-39" value="" style="ellipse;whiteSpace=wrap;html=1;aspect=fixed;dashed=1;" parent="3wXypxJsI4q4X5wOz-Iy-3" vertex="1">
          <mxGeometry width="80" height="80" as="geometry" />
        </mxCell>
        <mxCell id="3wXypxJsI4q4X5wOz-Iy-2" value="" style="group" parent="3wXypxJsI4q4X5wOz-Iy-3" vertex="1" connectable="0">
          <mxGeometry x="17.5" y="22.5" width="45" height="35" as="geometry" />
        </mxCell>
        <mxCell id="F51sy77VU0Ca32_vkjNk-40" value="" style="rounded=0;whiteSpace=wrap;html=1;" parent="3wXypxJsI4q4X5wOz-Iy-2" vertex="1">
          <mxGeometry x="15" width="30" height="30" as="geometry" />
        </mxCell>
        <mxCell id="F51sy77VU0Ca32_vkjNk-41" value="" style="rounded=0;whiteSpace=wrap;html=1;" parent="3wXypxJsI4q4X5wOz-Iy-2" vertex="1">
          <mxGeometry y="5" width="31" height="30" as="geometry" />
        </mxCell>
        <mxCell id="3wXypxJsI4q4X5wOz-Iy-4" value="" style="group" parent="1" vertex="1" connectable="0">
          <mxGeometry x="407.5" y="290" width="80" height="80" as="geometry" />
        </mxCell>
        <mxCell id="F51sy77VU0Ca32_vkjNk-50" value="" style="ellipse;whiteSpace=wrap;html=1;aspect=fixed;dashed=1;" parent="3wXypxJsI4q4X5wOz-Iy-4" vertex="1">
          <mxGeometry width="80" height="80" as="geometry" />
        </mxCell>
        <mxCell id="F51sy77VU0Ca32_vkjNk-51" value="" style="rounded=0;whiteSpace=wrap;html=1;" parent="3wXypxJsI4q4X5wOz-Iy-4" vertex="1">
          <mxGeometry x="25" y="25" width="30" height="30" as="geometry" />
        </mxCell>
        <mxCell id="3wXypxJsI4q4X5wOz-Iy-5" value="" style="group" parent="1" vertex="1" connectable="0">
          <mxGeometry x="320" y="290" width="80" height="80" as="geometry" />
        </mxCell>
        <mxCell id="3wXypxJsI4q4X5wOz-Iy-6" value="" style="ellipse;whiteSpace=wrap;html=1;aspect=fixed;dashed=1;" parent="3wXypxJsI4q4X5wOz-Iy-5" vertex="1">
          <mxGeometry width="80" height="80" as="geometry" />
        </mxCell>
        <mxCell id="3wXypxJsI4q4X5wOz-Iy-7" value="" style="rounded=0;whiteSpace=wrap;html=1;" parent="3wXypxJsI4q4X5wOz-Iy-5" vertex="1">
          <mxGeometry x="25" y="25" width="30" height="30" as="geometry" />
        </mxCell>
        <mxCell id="3wXypxJsI4q4X5wOz-Iy-8" value="" style="group" parent="1" vertex="1" connectable="0">
          <mxGeometry x="497.5" y="290" width="80" height="80" as="geometry" />
        </mxCell>
        <mxCell id="3wXypxJsI4q4X5wOz-Iy-9" value="" style="ellipse;whiteSpace=wrap;html=1;aspect=fixed;dashed=1;" parent="3wXypxJsI4q4X5wOz-Iy-8" vertex="1">
          <mxGeometry width="80" height="80" as="geometry" />
        </mxCell>
        <mxCell id="3wXypxJsI4q4X5wOz-Iy-10" value="" style="group" parent="3wXypxJsI4q4X5wOz-Iy-8" vertex="1" connectable="0">
          <mxGeometry x="17.5" y="22.5" width="45" height="35" as="geometry" />
        </mxCell>
        <mxCell id="3wXypxJsI4q4X5wOz-Iy-11" value="" style="rounded=0;whiteSpace=wrap;html=1;" parent="3wXypxJsI4q4X5wOz-Iy-10" vertex="1">
          <mxGeometry x="15" width="30" height="30" as="geometry" />
        </mxCell>
        <mxCell id="3wXypxJsI4q4X5wOz-Iy-12" value="" style="rounded=0;whiteSpace=wrap;html=1;" parent="3wXypxJsI4q4X5wOz-Iy-10" vertex="1">
          <mxGeometry y="5" width="31" height="30" as="geometry" />
        </mxCell>
        <mxCell id="3wXypxJsI4q4X5wOz-Iy-14" value="" style="rounded=0;whiteSpace=wrap;html=1;fillColor=#dae8fc;strokeColor=none;" parent="1" vertex="1">
          <mxGeometry x="160" y="150" width="310" height="40" as="geometry" />
        </mxCell>
        <mxCell id="3wXypxJsI4q4X5wOz-Iy-16" value="" style="group" parent="1" vertex="1" connectable="0">
          <mxGeometry x="190" y="130" width="160" height="80" as="geometry" />
        </mxCell>
        <mxCell id="3wXypxJsI4q4X5wOz-Iy-17" value="" style="ellipse;whiteSpace=wrap;html=1;aspect=fixed;dashed=1;" parent="3wXypxJsI4q4X5wOz-Iy-16" vertex="1">
          <mxGeometry width="80" height="80" as="geometry" />
        </mxCell>
        <mxCell id="3wXypxJsI4q4X5wOz-Iy-18" value="" style="group" parent="3wXypxJsI4q4X5wOz-Iy-16" vertex="1" connectable="0">
          <mxGeometry x="17.5" y="22.5" width="45" height="35" as="geometry" />
        </mxCell>
        <mxCell id="3wXypxJsI4q4X5wOz-Iy-19" value="" style="rounded=0;whiteSpace=wrap;html=1;" parent="3wXypxJsI4q4X5wOz-Iy-18" vertex="1">
          <mxGeometry x="15" width="30" height="30" as="geometry" />
        </mxCell>
        <mxCell id="3wXypxJsI4q4X5wOz-Iy-20" value="" style="rounded=0;whiteSpace=wrap;html=1;" parent="3wXypxJsI4q4X5wOz-Iy-18" vertex="1">
          <mxGeometry y="5" width="31" height="30" as="geometry" />
        </mxCell>
        <mxCell id="3wXypxJsI4q4X5wOz-Iy-21" value="" style="group" parent="1" vertex="1" connectable="0">
          <mxGeometry x="280" y="130" width="80" height="80" as="geometry" />
        </mxCell>
        <mxCell id="3wXypxJsI4q4X5wOz-Iy-22" value="" style="ellipse;whiteSpace=wrap;html=1;aspect=fixed;dashed=1;" parent="3wXypxJsI4q4X5wOz-Iy-21" vertex="1">
          <mxGeometry width="80" height="80" as="geometry" />
        </mxCell>
        <mxCell id="3wXypxJsI4q4X5wOz-Iy-23" value="" style="group" parent="3wXypxJsI4q4X5wOz-Iy-21" vertex="1" connectable="0">
          <mxGeometry x="17.5" y="22.5" width="45" height="35" as="geometry" />
        </mxCell>
        <mxCell id="3wXypxJsI4q4X5wOz-Iy-24" value="" style="rounded=0;whiteSpace=wrap;html=1;" parent="3wXypxJsI4q4X5wOz-Iy-23" vertex="1">
          <mxGeometry x="15" width="30" height="30" as="geometry" />
        </mxCell>
        <mxCell id="3wXypxJsI4q4X5wOz-Iy-25" value="" style="rounded=0;whiteSpace=wrap;html=1;" parent="3wXypxJsI4q4X5wOz-Iy-23" vertex="1">
          <mxGeometry y="5" width="31" height="30" as="geometry" />
        </mxCell>
        <mxCell id="3wXypxJsI4q4X5wOz-Iy-34" value="" style="group" parent="1" vertex="1" connectable="0">
          <mxGeometry x="370" y="130" width="80" height="80" as="geometry" />
        </mxCell>
        <mxCell id="3wXypxJsI4q4X5wOz-Iy-35" value="" style="ellipse;whiteSpace=wrap;html=1;aspect=fixed;dashed=1;" parent="3wXypxJsI4q4X5wOz-Iy-34" vertex="1">
          <mxGeometry width="80" height="80" as="geometry" />
        </mxCell>
        <mxCell id="3wXypxJsI4q4X5wOz-Iy-36" value="" style="rounded=0;whiteSpace=wrap;html=1;" parent="3wXypxJsI4q4X5wOz-Iy-34" vertex="1">
          <mxGeometry x="25" y="25" width="30" height="30" as="geometry" />
        </mxCell>
        <mxCell id="3wXypxJsI4q4X5wOz-Iy-42" value="" style="shape=parallelogram;perimeter=parallelogramPerimeter;whiteSpace=wrap;html=1;fixedSize=1;fillColor=#dae8fc;strokeColor=none;size=20;flipH=1;" parent="1" vertex="1">
          <mxGeometry x="459.5" y="150" width="60" height="80" as="geometry" />
        </mxCell>
        <mxCell id="3wXypxJsI4q4X5wOz-Iy-43" value="" style="rounded=0;whiteSpace=wrap;html=1;fillColor=#dae8fc;strokeColor=none;" parent="1" vertex="1">
          <mxGeometry x="280" y="50" width="400" height="40" as="geometry" />
        </mxCell>
        <mxCell id="3wXypxJsI4q4X5wOz-Iy-44" value="" style="shape=parallelogram;perimeter=parallelogramPerimeter;whiteSpace=wrap;html=1;fixedSize=1;fillColor=#dae8fc;strokeColor=none;size=30;flipH=1;" parent="1" vertex="1">
          <mxGeometry x="650" y="50" width="70" height="180" as="geometry" />
        </mxCell>
        <mxCell id="3wXypxJsI4q4X5wOz-Iy-45" value="" style="group" parent="1" vertex="1" connectable="0">
          <mxGeometry x="304" y="30" width="80" height="80" as="geometry" />
        </mxCell>
        <mxCell id="3wXypxJsI4q4X5wOz-Iy-46" value="" style="ellipse;whiteSpace=wrap;html=1;aspect=fixed;dashed=1;" parent="3wXypxJsI4q4X5wOz-Iy-45" vertex="1">
          <mxGeometry width="80" height="80" as="geometry" />
        </mxCell>
        <mxCell id="3wXypxJsI4q4X5wOz-Iy-47" value="" style="rounded=0;whiteSpace=wrap;html=1;" parent="3wXypxJsI4q4X5wOz-Iy-45" vertex="1">
          <mxGeometry x="25" y="25" width="30" height="30" as="geometry" />
        </mxCell>
        <mxCell id="3wXypxJsI4q4X5wOz-Iy-48" value="" style="group" parent="1" vertex="1" connectable="0">
          <mxGeometry x="394" y="30" width="80" height="80" as="geometry" />
        </mxCell>
        <mxCell id="3wXypxJsI4q4X5wOz-Iy-49" value="" style="ellipse;whiteSpace=wrap;html=1;aspect=fixed;dashed=1;" parent="3wXypxJsI4q4X5wOz-Iy-48" vertex="1">
          <mxGeometry width="80" height="80" as="geometry" />
        </mxCell>
        <mxCell id="3wXypxJsI4q4X5wOz-Iy-50" value="" style="group" parent="3wXypxJsI4q4X5wOz-Iy-48" vertex="1" connectable="0">
          <mxGeometry x="17.5" y="22.5" width="45" height="35" as="geometry" />
        </mxCell>
        <mxCell id="3wXypxJsI4q4X5wOz-Iy-51" value="" style="rounded=0;whiteSpace=wrap;html=1;" parent="3wXypxJsI4q4X5wOz-Iy-50" vertex="1">
          <mxGeometry x="15" width="30" height="30" as="geometry" />
        </mxCell>
        <mxCell id="3wXypxJsI4q4X5wOz-Iy-52" value="" style="rounded=0;whiteSpace=wrap;html=1;" parent="3wXypxJsI4q4X5wOz-Iy-50" vertex="1">
          <mxGeometry y="5" width="31" height="30" as="geometry" />
        </mxCell>
        <mxCell id="3wXypxJsI4q4X5wOz-Iy-53" value="" style="group" parent="1" vertex="1" connectable="0">
          <mxGeometry x="484" y="30" width="80" height="80" as="geometry" />
        </mxCell>
        <mxCell id="3wXypxJsI4q4X5wOz-Iy-54" value="" style="ellipse;whiteSpace=wrap;html=1;aspect=fixed;dashed=1;" parent="3wXypxJsI4q4X5wOz-Iy-53" vertex="1">
          <mxGeometry width="80" height="80" as="geometry" />
        </mxCell>
        <mxCell id="3wXypxJsI4q4X5wOz-Iy-55" value="" style="group" parent="3wXypxJsI4q4X5wOz-Iy-53" vertex="1" connectable="0">
          <mxGeometry x="17.5" y="22.5" width="45" height="35" as="geometry" />
        </mxCell>
        <mxCell id="3wXypxJsI4q4X5wOz-Iy-56" value="" style="rounded=0;whiteSpace=wrap;html=1;" parent="3wXypxJsI4q4X5wOz-Iy-55" vertex="1">
          <mxGeometry x="15" width="30" height="30" as="geometry" />
        </mxCell>
        <mxCell id="3wXypxJsI4q4X5wOz-Iy-57" value="" style="rounded=0;whiteSpace=wrap;html=1;" parent="3wXypxJsI4q4X5wOz-Iy-55" vertex="1">
          <mxGeometry y="5" width="31" height="30" as="geometry" />
        </mxCell>
        <mxCell id="3wXypxJsI4q4X5wOz-Iy-58" value="" style="group" parent="1" vertex="1" connectable="0">
          <mxGeometry x="574" y="30" width="80" height="80" as="geometry" />
        </mxCell>
        <mxCell id="3wXypxJsI4q4X5wOz-Iy-59" value="" style="ellipse;whiteSpace=wrap;html=1;aspect=fixed;dashed=1;" parent="3wXypxJsI4q4X5wOz-Iy-58" vertex="1">
          <mxGeometry width="80" height="80" as="geometry" />
        </mxCell>
        <mxCell id="3wXypxJsI4q4X5wOz-Iy-60" value="" style="group" parent="3wXypxJsI4q4X5wOz-Iy-58" vertex="1" connectable="0">
          <mxGeometry x="17.5" y="22.5" width="45" height="35" as="geometry" />
        </mxCell>
        <mxCell id="3wXypxJsI4q4X5wOz-Iy-61" value="" style="rounded=0;whiteSpace=wrap;html=1;" parent="3wXypxJsI4q4X5wOz-Iy-60" vertex="1">
          <mxGeometry x="15" width="30" height="30" as="geometry" />
        </mxCell>
        <mxCell id="3wXypxJsI4q4X5wOz-Iy-62" value="" style="rounded=0;whiteSpace=wrap;html=1;" parent="3wXypxJsI4q4X5wOz-Iy-60" vertex="1">
          <mxGeometry y="5" width="31" height="30" as="geometry" />
        </mxCell>
        <mxCell id="3wXypxJsI4q4X5wOz-Iy-63" value="" style="sketch=0;outlineConnect=0;fontColor=#232F3E;gradientColor=none;fillColor=#232F3D;strokeColor=none;dashed=0;verticalLabelPosition=bottom;verticalAlign=top;align=center;html=1;fontSize=12;fontStyle=0;aspect=fixed;pointerEvents=1;shape=mxgraph.aws4.user;" parent="1" vertex="1">
          <mxGeometry x="443.5" y="370" width="28" height="28" as="geometry" />
        </mxCell>
        <mxCell id="3wXypxJsI4q4X5wOz-Iy-64" value="" style="sketch=0;outlineConnect=0;fontColor=#232F3E;gradientColor=none;fillColor=#232F3D;strokeColor=none;dashed=0;verticalLabelPosition=bottom;verticalAlign=top;align=center;html=1;fontSize=12;fontStyle=0;aspect=fixed;pointerEvents=1;shape=mxgraph.aws4.user;" parent="1" vertex="1">
          <mxGeometry x="220" y="102" width="28" height="28" as="geometry" />
        </mxCell>
        <mxCell id="3wXypxJsI4q4X5wOz-Iy-65" value="" style="sketch=0;outlineConnect=0;fontColor=#232F3E;gradientColor=none;fillColor=#232F3D;strokeColor=none;dashed=0;verticalLabelPosition=bottom;verticalAlign=top;align=center;html=1;fontSize=12;fontStyle=0;aspect=fixed;pointerEvents=1;shape=mxgraph.aws4.user;" parent="1" vertex="1">
          <mxGeometry x="310" width="28" height="28" as="geometry" />
        </mxCell>
        <mxCell id="3wXypxJsI4q4X5wOz-Iy-66" value="" style="sketch=0;outlineConnect=0;fontColor=#232F3E;gradientColor=none;fillColor=#232F3D;strokeColor=none;dashed=0;verticalLabelPosition=bottom;verticalAlign=top;align=center;html=1;fontSize=12;fontStyle=0;aspect=fixed;pointerEvents=1;shape=mxgraph.aws4.user;" parent="1" vertex="1">
          <mxGeometry x="439.5" width="28" height="28" as="geometry" />
        </mxCell>
        <mxCell id="3wXypxJsI4q4X5wOz-Iy-67" value="" style="sketch=0;outlineConnect=0;fontColor=#232F3E;gradientColor=none;fillColor=#232F3D;strokeColor=none;dashed=0;verticalLabelPosition=bottom;verticalAlign=top;align=center;html=1;fontSize=12;fontStyle=0;aspect=fixed;pointerEvents=1;shape=mxgraph.aws4.user;" parent="1" vertex="1">
          <mxGeometry x="471.5" width="28" height="28" as="geometry" />
        </mxCell>
        <mxCell id="3wXypxJsI4q4X5wOz-Iy-68" value="" style="sketch=0;outlineConnect=0;fontColor=#232F3E;gradientColor=none;fillColor=#232F3D;strokeColor=none;dashed=0;verticalLabelPosition=bottom;verticalAlign=top;align=center;html=1;fontSize=12;fontStyle=0;aspect=fixed;pointerEvents=1;shape=mxgraph.aws4.user;" parent="1" vertex="1">
          <mxGeometry x="620" width="28" height="28" as="geometry" />
        </mxCell>
        <mxCell id="3wXypxJsI4q4X5wOz-Iy-77" value="" style="group" parent="1" vertex="1" connectable="0">
          <mxGeometry x="140" y="1050" width="80" height="80" as="geometry" />
        </mxCell>
        <mxCell id="3wXypxJsI4q4X5wOz-Iy-78" value="" style="ellipse;whiteSpace=wrap;html=1;aspect=fixed;dashed=1;" parent="3wXypxJsI4q4X5wOz-Iy-77" vertex="1">
          <mxGeometry x="20" width="80" height="80" as="geometry" />
        </mxCell>
        <mxCell id="3wXypxJsI4q4X5wOz-Iy-79" value="" style="group" parent="3wXypxJsI4q4X5wOz-Iy-77" vertex="1" connectable="0">
          <mxGeometry x="37.5" y="22.5" width="45" height="35" as="geometry" />
        </mxCell>
        <mxCell id="3wXypxJsI4q4X5wOz-Iy-80" value="" style="rounded=0;whiteSpace=wrap;html=1;" parent="3wXypxJsI4q4X5wOz-Iy-79" vertex="1">
          <mxGeometry x="15" width="30" height="30" as="geometry" />
        </mxCell>
        <mxCell id="3wXypxJsI4q4X5wOz-Iy-81" value="" style="rounded=0;whiteSpace=wrap;html=1;" parent="3wXypxJsI4q4X5wOz-Iy-79" vertex="1">
          <mxGeometry y="5" width="31" height="30" as="geometry" />
        </mxCell>
        <mxCell id="3wXypxJsI4q4X5wOz-Iy-82" value="" style="group" parent="1" vertex="1" connectable="0">
          <mxGeometry x="250" y="1050" width="80" height="80" as="geometry" />
        </mxCell>
        <mxCell id="3wXypxJsI4q4X5wOz-Iy-83" value="" style="ellipse;whiteSpace=wrap;html=1;aspect=fixed;dashed=1;" parent="3wXypxJsI4q4X5wOz-Iy-82" vertex="1">
          <mxGeometry width="80" height="80" as="geometry" />
        </mxCell>
        <mxCell id="3wXypxJsI4q4X5wOz-Iy-84" value="" style="rounded=0;whiteSpace=wrap;html=1;" parent="3wXypxJsI4q4X5wOz-Iy-82" vertex="1">
          <mxGeometry x="25" y="25" width="30" height="30" as="geometry" />
        </mxCell>
        <mxCell id="3wXypxJsI4q4X5wOz-Iy-85" value="" style="group" parent="1" vertex="1" connectable="0">
          <mxGeometry x="340" y="1050" width="80" height="80" as="geometry" />
        </mxCell>
        <mxCell id="3wXypxJsI4q4X5wOz-Iy-86" value="" style="ellipse;whiteSpace=wrap;html=1;aspect=fixed;dashed=1;" parent="3wXypxJsI4q4X5wOz-Iy-85" vertex="1">
          <mxGeometry width="80" height="80" as="geometry" />
        </mxCell>
        <mxCell id="3wXypxJsI4q4X5wOz-Iy-87" value="" style="rounded=0;whiteSpace=wrap;html=1;" parent="3wXypxJsI4q4X5wOz-Iy-85" vertex="1">
          <mxGeometry x="25" y="25" width="30" height="30" as="geometry" />
        </mxCell>
        <mxCell id="3wXypxJsI4q4X5wOz-Iy-88" value="" style="group" parent="1" vertex="1" connectable="0">
          <mxGeometry x="430" y="1050" width="80" height="80" as="geometry" />
        </mxCell>
        <mxCell id="3wXypxJsI4q4X5wOz-Iy-89" value="" style="ellipse;whiteSpace=wrap;html=1;aspect=fixed;dashed=1;" parent="3wXypxJsI4q4X5wOz-Iy-88" vertex="1">
          <mxGeometry width="80" height="80" as="geometry" />
        </mxCell>
        <mxCell id="3wXypxJsI4q4X5wOz-Iy-90" value="" style="group" parent="3wXypxJsI4q4X5wOz-Iy-88" vertex="1" connectable="0">
          <mxGeometry x="17.5" y="22.5" width="45" height="35" as="geometry" />
        </mxCell>
        <mxCell id="3wXypxJsI4q4X5wOz-Iy-91" value="" style="rounded=0;whiteSpace=wrap;html=1;" parent="3wXypxJsI4q4X5wOz-Iy-90" vertex="1">
          <mxGeometry x="15" width="30" height="30" as="geometry" />
        </mxCell>
        <mxCell id="3wXypxJsI4q4X5wOz-Iy-92" value="" style="rounded=0;whiteSpace=wrap;html=1;" parent="3wXypxJsI4q4X5wOz-Iy-90" vertex="1">
          <mxGeometry y="5" width="31" height="30" as="geometry" />
        </mxCell>
        <mxCell id="3wXypxJsI4q4X5wOz-Iy-93" value="" style="group" parent="1" vertex="1" connectable="0">
          <mxGeometry x="520" y="1050" width="80" height="80" as="geometry" />
        </mxCell>
        <mxCell id="3wXypxJsI4q4X5wOz-Iy-94" value="" style="ellipse;whiteSpace=wrap;html=1;aspect=fixed;dashed=1;" parent="3wXypxJsI4q4X5wOz-Iy-93" vertex="1">
          <mxGeometry width="80" height="80" as="geometry" />
        </mxCell>
        <mxCell id="3wXypxJsI4q4X5wOz-Iy-95" value="" style="group" parent="3wXypxJsI4q4X5wOz-Iy-93" vertex="1" connectable="0">
          <mxGeometry x="17.5" y="22.5" width="45" height="35" as="geometry" />
        </mxCell>
        <mxCell id="3wXypxJsI4q4X5wOz-Iy-96" value="" style="rounded=0;whiteSpace=wrap;html=1;" parent="3wXypxJsI4q4X5wOz-Iy-95" vertex="1">
          <mxGeometry x="15" width="30" height="30" as="geometry" />
        </mxCell>
        <mxCell id="3wXypxJsI4q4X5wOz-Iy-97" value="" style="rounded=0;whiteSpace=wrap;html=1;" parent="3wXypxJsI4q4X5wOz-Iy-95" vertex="1">
          <mxGeometry y="5" width="31" height="30" as="geometry" />
        </mxCell>
        <mxCell id="3wXypxJsI4q4X5wOz-Iy-99" value="" style="group" parent="1" vertex="1" connectable="0">
          <mxGeometry x="610" y="1050" width="80" height="80" as="geometry" />
        </mxCell>
        <mxCell id="3wXypxJsI4q4X5wOz-Iy-100" value="" style="ellipse;whiteSpace=wrap;html=1;aspect=fixed;dashed=1;" parent="3wXypxJsI4q4X5wOz-Iy-99" vertex="1">
          <mxGeometry width="80" height="80" as="geometry" />
        </mxCell>
        <mxCell id="3wXypxJsI4q4X5wOz-Iy-101" value="" style="rounded=0;whiteSpace=wrap;html=1;" parent="3wXypxJsI4q4X5wOz-Iy-99" vertex="1">
          <mxGeometry x="25" y="25" width="30" height="30" as="geometry" />
        </mxCell>
        <mxCell id="3wXypxJsI4q4X5wOz-Iy-102" value="&lt;font style=&quot;font-size: 36px;&quot;&gt;🔥&lt;/font&gt;" style="text;html=1;strokeColor=none;fillColor=none;align=center;verticalAlign=middle;whiteSpace=wrap;rounded=0;" parent="1" vertex="1">
          <mxGeometry x="477.5" y="201.25" width="50" height="60" as="geometry" />
        </mxCell>
        <mxCell id="3wXypxJsI4q4X5wOz-Iy-103" value="&lt;font style=&quot;font-size: 36px;&quot;&gt;🔥&lt;/font&gt;" style="text;html=1;strokeColor=none;fillColor=none;align=center;verticalAlign=middle;whiteSpace=wrap;rounded=0;" parent="1" vertex="1">
          <mxGeometry x="620" y="238.75" width="50" height="60" as="geometry" />
        </mxCell>
        <mxCell id="3wXypxJsI4q4X5wOz-Iy-104" value="&lt;font style=&quot;font-size: 36px;&quot;&gt;🔥&lt;/font&gt;" style="text;html=1;strokeColor=none;fillColor=none;align=center;verticalAlign=middle;whiteSpace=wrap;rounded=0;" parent="1" vertex="1">
          <mxGeometry x="680" y="201.25" width="50" height="60" as="geometry" />
        </mxCell>
        <mxCell id="3wXypxJsI4q4X5wOz-Iy-105" value="" style="rounded=0;whiteSpace=wrap;html=1;fillColor=#d5e8d4;strokeColor=none;" parent="1" vertex="1">
          <mxGeometry y="720" width="740" height="40" as="geometry" />
        </mxCell>
        <mxCell id="3wXypxJsI4q4X5wOz-Iy-106" value="&lt;span style=&quot;font-size: 36px;&quot;&gt;🙅‍♂️&lt;/span&gt;" style="text;html=1;strokeColor=none;fillColor=none;align=center;verticalAlign=middle;whiteSpace=wrap;rounded=0;" parent="1" vertex="1">
          <mxGeometry y="650" width="50" height="60" as="geometry" />
        </mxCell>
        <mxCell id="3wXypxJsI4q4X5wOz-Iy-107" value="" style="sketch=0;outlineConnect=0;fontColor=#232F3E;gradientColor=none;fillColor=#232F3D;strokeColor=none;dashed=0;verticalLabelPosition=bottom;verticalAlign=top;align=center;html=1;fontSize=12;fontStyle=0;aspect=fixed;pointerEvents=1;shape=mxgraph.aws4.user;" parent="1" vertex="1">
          <mxGeometry x="256" y="784" width="28" height="28" as="geometry" />
        </mxCell>
        <mxCell id="3wXypxJsI4q4X5wOz-Iy-108" value="" style="sketch=0;outlineConnect=0;fontColor=#232F3E;gradientColor=none;fillColor=#232F3D;strokeColor=none;dashed=0;verticalLabelPosition=bottom;verticalAlign=top;align=center;html=1;fontSize=12;fontStyle=0;aspect=fixed;pointerEvents=1;shape=mxgraph.aws4.user;" parent="1" vertex="1">
          <mxGeometry x="288" y="552" width="28" height="28" as="geometry" />
        </mxCell>
        <mxCell id="3wXypxJsI4q4X5wOz-Iy-109" value="トランクブランチ" style="text;html=1;strokeColor=none;fillColor=none;align=center;verticalAlign=middle;whiteSpace=wrap;rounded=0;" parent="1" vertex="1">
          <mxGeometry x="9" y="728.75" width="111" height="22.5" as="geometry" />
        </mxCell>
        <mxCell id="3wXypxJsI4q4X5wOz-Iy-110" value="" style="sketch=0;outlineConnect=0;fontColor=#232F3E;gradientColor=none;fillColor=#232F3D;strokeColor=none;dashed=0;verticalLabelPosition=bottom;verticalAlign=top;align=center;html=1;fontSize=12;fontStyle=0;aspect=fixed;pointerEvents=1;shape=mxgraph.aws4.user;" parent="1" vertex="1">
          <mxGeometry x="589.5" y="784" width="28" height="28" as="geometry" />
        </mxCell>
        <mxCell id="3wXypxJsI4q4X5wOz-Iy-111" value="" style="sketch=0;outlineConnect=0;fontColor=#232F3E;gradientColor=none;fillColor=#232F3D;strokeColor=none;dashed=0;verticalLabelPosition=bottom;verticalAlign=top;align=center;html=1;fontSize=12;fontStyle=0;aspect=fixed;pointerEvents=1;shape=mxgraph.aws4.user;" parent="1" vertex="1">
          <mxGeometry x="292" y="784" width="28" height="28" as="geometry" />
        </mxCell>
        <mxCell id="3wXypxJsI4q4X5wOz-Iy-112" value="" style="sketch=0;outlineConnect=0;fontColor=#232F3E;gradientColor=none;fillColor=#232F3D;strokeColor=none;dashed=0;verticalLabelPosition=bottom;verticalAlign=top;align=center;html=1;fontSize=12;fontStyle=0;aspect=fixed;pointerEvents=1;shape=mxgraph.aws4.user;" parent="1" vertex="1">
          <mxGeometry x="402" y="552" width="28" height="28" as="geometry" />
        </mxCell>
        <mxCell id="3wXypxJsI4q4X5wOz-Iy-113" value="" style="sketch=0;outlineConnect=0;fontColor=#232F3E;gradientColor=none;fillColor=#232F3D;strokeColor=none;dashed=0;verticalLabelPosition=bottom;verticalAlign=top;align=center;html=1;fontSize=12;fontStyle=0;aspect=fixed;pointerEvents=1;shape=mxgraph.aws4.user;" parent="1" vertex="1">
          <mxGeometry x="487.5" y="784" width="28" height="28" as="geometry" />
        </mxCell>
        <mxCell id="3wXypxJsI4q4X5wOz-Iy-114" value="" style="group" parent="1" vertex="1" connectable="0">
          <mxGeometry x="140" y="700" width="80" height="80" as="geometry" />
        </mxCell>
        <mxCell id="3wXypxJsI4q4X5wOz-Iy-115" value="" style="ellipse;whiteSpace=wrap;html=1;aspect=fixed;dashed=1;" parent="3wXypxJsI4q4X5wOz-Iy-114" vertex="1">
          <mxGeometry x="90" width="80" height="80" as="geometry" />
        </mxCell>
        <mxCell id="3wXypxJsI4q4X5wOz-Iy-116" value="" style="group" parent="3wXypxJsI4q4X5wOz-Iy-114" vertex="1" connectable="0">
          <mxGeometry x="107.5" y="22.5" width="45" height="35" as="geometry" />
        </mxCell>
        <mxCell id="3wXypxJsI4q4X5wOz-Iy-117" value="" style="rounded=0;whiteSpace=wrap;html=1;" parent="3wXypxJsI4q4X5wOz-Iy-116" vertex="1">
          <mxGeometry x="15" width="30" height="30" as="geometry" />
        </mxCell>
        <mxCell id="3wXypxJsI4q4X5wOz-Iy-118" value="" style="rounded=0;whiteSpace=wrap;html=1;" parent="3wXypxJsI4q4X5wOz-Iy-116" vertex="1">
          <mxGeometry y="5" width="31" height="30" as="geometry" />
        </mxCell>
        <mxCell id="3wXypxJsI4q4X5wOz-Iy-122" value="" style="group" parent="1" vertex="1" connectable="0">
          <mxGeometry x="419.5" y="700" width="80" height="80" as="geometry" />
        </mxCell>
        <mxCell id="3wXypxJsI4q4X5wOz-Iy-123" value="" style="ellipse;whiteSpace=wrap;html=1;aspect=fixed;dashed=1;" parent="3wXypxJsI4q4X5wOz-Iy-122" vertex="1">
          <mxGeometry width="80" height="80" as="geometry" />
        </mxCell>
        <mxCell id="3wXypxJsI4q4X5wOz-Iy-124" value="" style="rounded=0;whiteSpace=wrap;html=1;" parent="3wXypxJsI4q4X5wOz-Iy-122" vertex="1">
          <mxGeometry x="25" y="25" width="30" height="30" as="geometry" />
        </mxCell>
        <mxCell id="3wXypxJsI4q4X5wOz-Iy-125" value="" style="group" parent="1" vertex="1" connectable="0">
          <mxGeometry x="546" y="700" width="80" height="80" as="geometry" />
        </mxCell>
        <mxCell id="3wXypxJsI4q4X5wOz-Iy-126" value="" style="ellipse;whiteSpace=wrap;html=1;aspect=fixed;dashed=1;" parent="3wXypxJsI4q4X5wOz-Iy-125" vertex="1">
          <mxGeometry width="80" height="80" as="geometry" />
        </mxCell>
        <mxCell id="3wXypxJsI4q4X5wOz-Iy-127" value="" style="group" parent="3wXypxJsI4q4X5wOz-Iy-125" vertex="1" connectable="0">
          <mxGeometry x="17.5" y="22.5" width="45" height="35" as="geometry" />
        </mxCell>
        <mxCell id="3wXypxJsI4q4X5wOz-Iy-128" value="" style="rounded=0;whiteSpace=wrap;html=1;" parent="3wXypxJsI4q4X5wOz-Iy-127" vertex="1">
          <mxGeometry x="15" width="30" height="30" as="geometry" />
        </mxCell>
        <mxCell id="3wXypxJsI4q4X5wOz-Iy-129" value="" style="rounded=0;whiteSpace=wrap;html=1;" parent="3wXypxJsI4q4X5wOz-Iy-127" vertex="1">
          <mxGeometry y="5" width="31" height="30" as="geometry" />
        </mxCell>
        <mxCell id="3wXypxJsI4q4X5wOz-Iy-130" value="" style="group" parent="1" vertex="1" connectable="0">
          <mxGeometry x="340" y="580" width="80" height="80" as="geometry" />
        </mxCell>
        <mxCell id="3wXypxJsI4q4X5wOz-Iy-131" value="" style="ellipse;whiteSpace=wrap;html=1;aspect=fixed;dashed=1;" parent="3wXypxJsI4q4X5wOz-Iy-130" vertex="1">
          <mxGeometry width="80" height="80" as="geometry" />
        </mxCell>
        <mxCell id="3wXypxJsI4q4X5wOz-Iy-132" value="" style="group" parent="3wXypxJsI4q4X5wOz-Iy-130" vertex="1" connectable="0">
          <mxGeometry x="17.5" y="22.5" width="45" height="35" as="geometry" />
        </mxCell>
        <mxCell id="3wXypxJsI4q4X5wOz-Iy-133" value="" style="rounded=0;whiteSpace=wrap;html=1;" parent="3wXypxJsI4q4X5wOz-Iy-132" vertex="1">
          <mxGeometry x="15" width="30" height="30" as="geometry" />
        </mxCell>
        <mxCell id="3wXypxJsI4q4X5wOz-Iy-134" value="" style="rounded=0;whiteSpace=wrap;html=1;" parent="3wXypxJsI4q4X5wOz-Iy-132" vertex="1">
          <mxGeometry y="5" width="31" height="30" as="geometry" />
        </mxCell>
        <mxCell id="3wXypxJsI4q4X5wOz-Iy-135" value="" style="group" parent="1" vertex="1" connectable="0">
          <mxGeometry x="230" y="580" width="80" height="80" as="geometry" />
        </mxCell>
        <mxCell id="3wXypxJsI4q4X5wOz-Iy-136" value="" style="ellipse;whiteSpace=wrap;html=1;aspect=fixed;dashed=1;" parent="3wXypxJsI4q4X5wOz-Iy-135" vertex="1">
          <mxGeometry width="80" height="80" as="geometry" />
        </mxCell>
        <mxCell id="3wXypxJsI4q4X5wOz-Iy-137" value="" style="rounded=0;whiteSpace=wrap;html=1;" parent="3wXypxJsI4q4X5wOz-Iy-135" vertex="1">
          <mxGeometry x="25" y="25" width="30" height="30" as="geometry" />
        </mxCell>
        <mxCell id="3wXypxJsI4q4X5wOz-Iy-141" value="" style="group" parent="1" vertex="1" connectable="0">
          <mxGeometry x="510" y="580" width="80" height="80" as="geometry" />
        </mxCell>
        <mxCell id="3wXypxJsI4q4X5wOz-Iy-142" value="" style="ellipse;whiteSpace=wrap;html=1;aspect=fixed;dashed=1;" parent="3wXypxJsI4q4X5wOz-Iy-141" vertex="1">
          <mxGeometry width="80" height="80" as="geometry" />
        </mxCell>
        <mxCell id="3wXypxJsI4q4X5wOz-Iy-143" value="" style="group" parent="3wXypxJsI4q4X5wOz-Iy-141" vertex="1" connectable="0">
          <mxGeometry x="17.5" y="22.5" width="45" height="35" as="geometry" />
        </mxCell>
        <mxCell id="3wXypxJsI4q4X5wOz-Iy-144" value="" style="rounded=0;whiteSpace=wrap;html=1;" parent="3wXypxJsI4q4X5wOz-Iy-143" vertex="1">
          <mxGeometry x="15" width="30" height="30" as="geometry" />
        </mxCell>
        <mxCell id="3wXypxJsI4q4X5wOz-Iy-145" value="" style="rounded=0;whiteSpace=wrap;html=1;" parent="3wXypxJsI4q4X5wOz-Iy-143" vertex="1">
          <mxGeometry y="5" width="31" height="30" as="geometry" />
        </mxCell>
        <mxCell id="3wXypxJsI4q4X5wOz-Iy-147" value="リリースブランチ" style="text;html=1;strokeColor=none;fillColor=none;align=center;verticalAlign=middle;whiteSpace=wrap;rounded=0;" parent="1" vertex="1">
          <mxGeometry x="56.5" y="608.75" width="111" height="22.5" as="geometry" />
        </mxCell>
        <mxCell id="3wXypxJsI4q4X5wOz-Iy-148" value="&lt;font style=&quot;font-size: 36px;&quot;&gt;🔥&lt;/font&gt;" style="text;html=1;strokeColor=none;fillColor=none;align=center;verticalAlign=middle;whiteSpace=wrap;rounded=0;" parent="1" vertex="1">
          <mxGeometry x="635" y="700" width="50" height="60" as="geometry" />
        </mxCell>
        <mxCell id="3wXypxJsI4q4X5wOz-Iy-149" value="リリース" style="text;html=1;strokeColor=none;fillColor=none;align=center;verticalAlign=middle;whiteSpace=wrap;rounded=0;" parent="1" vertex="1">
          <mxGeometry x="517.75" y="520" width="63.5" height="22.5" as="geometry" />
        </mxCell>
        <mxCell id="3wXypxJsI4q4X5wOz-Iy-150" value="" style="shape=flexArrow;endArrow=classic;html=1;rounded=0;" parent="1" edge="1">
          <mxGeometry width="50" height="50" relative="1" as="geometry">
            <mxPoint x="549" y="540" as="sourcePoint" />
            <mxPoint x="549.32" y="577.25" as="targetPoint" />
          </mxGeometry>
        </mxCell>
        <mxCell id="49aFclzyOkbWazswMRNb-2" value="" style="rounded=0;whiteSpace=wrap;html=1;fillColor=#fff2cc;strokeColor=none;" vertex="1" parent="1">
          <mxGeometry x="220" y="950" width="439.75" height="40" as="geometry" />
        </mxCell>
        <mxCell id="49aFclzyOkbWazswMRNb-4" value="" style="sketch=0;outlineConnect=0;fontColor=#232F3E;gradientColor=none;fillColor=#232F3D;strokeColor=none;dashed=0;verticalLabelPosition=bottom;verticalAlign=top;align=center;html=1;fontSize=12;fontStyle=0;aspect=fixed;pointerEvents=1;shape=mxgraph.aws4.user;" vertex="1" parent="1">
          <mxGeometry x="307.75" y="902" width="28" height="28" as="geometry" />
        </mxCell>
        <mxCell id="49aFclzyOkbWazswMRNb-11" value="" style="group" vertex="1" connectable="0" parent="1">
          <mxGeometry x="269.75" y="930" width="80" height="80" as="geometry" />
        </mxCell>
        <mxCell id="49aFclzyOkbWazswMRNb-12" value="" style="ellipse;whiteSpace=wrap;html=1;aspect=fixed;dashed=1;" vertex="1" parent="49aFclzyOkbWazswMRNb-11">
          <mxGeometry width="80" height="80" as="geometry" />
        </mxCell>
        <mxCell id="49aFclzyOkbWazswMRNb-13" value="" style="rounded=0;whiteSpace=wrap;html=1;" vertex="1" parent="49aFclzyOkbWazswMRNb-11">
          <mxGeometry x="25" y="25" width="30" height="30" as="geometry" />
        </mxCell>
        <mxCell id="49aFclzyOkbWazswMRNb-14" value="" style="group" vertex="1" connectable="0" parent="1">
          <mxGeometry x="549.75" y="930" width="80" height="80" as="geometry" />
        </mxCell>
        <mxCell id="49aFclzyOkbWazswMRNb-15" value="" style="ellipse;whiteSpace=wrap;html=1;aspect=fixed;dashed=1;" vertex="1" parent="49aFclzyOkbWazswMRNb-14">
          <mxGeometry width="80" height="80" as="geometry" />
        </mxCell>
        <mxCell id="49aFclzyOkbWazswMRNb-16" value="" style="group" vertex="1" connectable="0" parent="49aFclzyOkbWazswMRNb-14">
          <mxGeometry x="17.5" y="22.5" width="45" height="35" as="geometry" />
        </mxCell>
        <mxCell id="49aFclzyOkbWazswMRNb-17" value="" style="rounded=0;whiteSpace=wrap;html=1;" vertex="1" parent="49aFclzyOkbWazswMRNb-16">
          <mxGeometry x="15" width="30" height="30" as="geometry" />
        </mxCell>
        <mxCell id="49aFclzyOkbWazswMRNb-18" value="" style="rounded=0;whiteSpace=wrap;html=1;" vertex="1" parent="49aFclzyOkbWazswMRNb-16">
          <mxGeometry y="5" width="31" height="30" as="geometry" />
        </mxCell>
        <mxCell id="49aFclzyOkbWazswMRNb-19" value="リリース" style="text;html=1;strokeColor=none;fillColor=none;align=center;verticalAlign=middle;whiteSpace=wrap;rounded=0;" vertex="1" parent="1">
          <mxGeometry x="557.5" y="870" width="63.5" height="22.5" as="geometry" />
        </mxCell>
        <mxCell id="49aFclzyOkbWazswMRNb-20" value="" style="shape=flexArrow;endArrow=classic;html=1;rounded=0;" edge="1" parent="1">
          <mxGeometry width="50" height="50" relative="1" as="geometry">
            <mxPoint x="588.75" y="890" as="sourcePoint" />
            <mxPoint x="589.07" y="927.25" as="targetPoint" />
          </mxGeometry>
        </mxCell>
        <mxCell id="49aFclzyOkbWazswMRNb-21" value="" style="group" vertex="1" connectable="0" parent="1">
          <mxGeometry x="360" y="930" width="80" height="80" as="geometry" />
        </mxCell>
        <mxCell id="49aFclzyOkbWazswMRNb-22" value="" style="ellipse;whiteSpace=wrap;html=1;aspect=fixed;dashed=1;" vertex="1" parent="49aFclzyOkbWazswMRNb-21">
          <mxGeometry width="80" height="80" as="geometry" />
        </mxCell>
        <mxCell id="49aFclzyOkbWazswMRNb-23" value="" style="rounded=0;whiteSpace=wrap;html=1;" vertex="1" parent="49aFclzyOkbWazswMRNb-21">
          <mxGeometry x="25" y="25" width="30" height="30" as="geometry" />
        </mxCell>
        <mxCell id="49aFclzyOkbWazswMRNb-24" style="rounded=0;orthogonalLoop=1;jettySize=auto;html=1;entryX=0.5;entryY=1;entryDx=0;entryDy=0;dashed=1;" edge="1" parent="1" source="3wXypxJsI4q4X5wOz-Iy-83" target="49aFclzyOkbWazswMRNb-12">
          <mxGeometry relative="1" as="geometry" />
        </mxCell>
        <mxCell id="49aFclzyOkbWazswMRNb-25" style="rounded=0;orthogonalLoop=1;jettySize=auto;html=1;entryX=0.5;entryY=1;entryDx=0;entryDy=0;dashed=1;" edge="1" parent="1" source="3wXypxJsI4q4X5wOz-Iy-86" target="49aFclzyOkbWazswMRNb-22">
          <mxGeometry relative="1" as="geometry" />
        </mxCell>
        <mxCell id="49aFclzyOkbWazswMRNb-26" style="rounded=0;orthogonalLoop=1;jettySize=auto;html=1;dashed=1;" edge="1" parent="1" source="3wXypxJsI4q4X5wOz-Iy-94" target="49aFclzyOkbWazswMRNb-15">
          <mxGeometry relative="1" as="geometry" />
        </mxCell>
      </root>
    </mxGraphModel>
  </diagram>
</mxfile>
